<svg width="668" height="211" viewBox="0 0 668 211" fill="none" xmlns="http://www.w3.org/2000/svg">
<g clip-path="url(#clip0_97_2)">
<rect width="668" height="211" fill="white"/>
<path d="M138.568 126.456C139.677 126.456 140.531 126.968 141.128 127.992C141.811 129.016 142.152 130.424 142.152 132.216C142.152 135.544 141.341 138.189 139.72 140.152C135.624 145.101 131.485 148.941 127.304 151.672C123.123 154.317 118.173 155.64 112.456 155.64C106.909 155.64 102.173 154.147 98.248 151.16C94.408 148.173 90.7387 143.053 87.24 135.8C84.424 129.997 82.2053 125.731 80.584 123C78.9627 120.184 77.3413 118.179 75.72 116.984C74.184 115.789 72.264 115.064 69.96 114.808C69.6187 116.6 68.6373 122.232 67.016 131.704C66.3333 135.971 65.9067 138.573 65.736 139.512C64.8827 144.717 63.176 148.728 60.616 151.544C58.056 154.275 54.1733 155.64 48.968 155.64C43.2507 155.64 38.1733 153.976 33.736 150.648C29.384 147.235 26.0133 142.541 23.624 136.568C21.2347 130.509 20.04 123.64 20.04 115.96C20.04 101.624 22.5147 89.2507 27.464 78.84C32.4987 68.4293 39.496 60.4933 48.456 55.032C57.5013 49.4853 67.912 46.712 79.688 46.712C87.88 46.712 94.7493 47.9493 100.296 50.424C105.843 52.8987 109.939 56.312 112.584 60.664C115.315 65.016 116.68 69.9227 116.68 75.384C116.68 80.1627 115.528 84.856 113.224 89.464C111.005 93.9867 107.635 97.9973 103.112 101.496C98.5893 104.995 93.0853 107.597 86.6 109.304C90.696 110.413 93.8533 112.205 96.072 114.68C98.2907 117.155 100.509 120.781 102.728 125.56C105.117 130.68 107.464 134.435 109.768 136.824C112.157 139.213 114.888 140.408 117.96 140.408C120.691 140.408 123.293 139.512 125.768 137.72C128.243 135.843 131.357 132.685 135.112 128.248C136.136 127.053 137.288 126.456 138.568 126.456ZM52.296 114.68C49.3947 114.68 47.3893 113.997 46.28 112.632C45.256 111.267 44.744 109.731 44.744 108.024C44.744 105.976 45.384 104.355 46.664 103.16C48.0293 101.965 49.5653 101.368 51.272 101.368H54.472C55.8373 93.0053 57.1173 85.7947 58.312 79.736C59.4213 74.1893 63.0053 71.416 69.064 71.416C73.928 71.416 76.36 73.592 76.36 77.944C76.36 78.8827 76.3173 79.608 76.232 80.12L72.392 101.368C77 101.112 81.1813 100.003 84.936 98.04C88.776 96.0773 91.8053 93.3467 94.024 89.848C96.328 86.3493 97.48 82.3813 97.48 77.944C97.48 72.568 95.6453 68.344 91.976 65.272C88.3067 62.2 82.9307 60.664 75.848 60.664C67.4853 60.664 60.1467 62.7547 53.832 66.936C47.6027 71.032 42.7387 77.176 39.24 85.368C35.7413 93.4747 33.992 103.373 33.992 115.064C33.992 120.525 34.5467 125.219 35.656 129.144C36.7653 133.069 38.1307 136.013 39.752 137.976C41.3733 139.939 42.9093 140.92 44.36 140.92C45.4693 140.92 46.3653 140.365 47.048 139.256C47.816 138.147 48.4133 136.355 48.84 133.88L52.296 114.68ZM189.845 126.01C190.972 126.01 191.838 126.53 192.445 127.57C193.138 128.61 193.485 130.04 193.485 131.86C193.485 135.327 192.662 138.013 191.015 139.92C187.808 143.82 183.258 147.417 177.365 150.71C171.558 154.003 165.318 155.65 158.645 155.65C149.545 155.65 142.482 153.18 137.455 148.24C132.428 143.3 129.915 136.54 129.915 127.96C129.915 121.98 131.172 116.433 133.685 111.32C136.198 106.12 139.665 102.003 144.085 98.97C148.592 95.9367 153.662 94.42 159.295 94.42C164.322 94.42 168.352 95.9367 171.385 98.97C174.418 101.917 175.935 105.947 175.935 111.06C175.935 117.04 173.768 122.197 169.435 126.53C165.188 130.777 157.952 134.157 147.725 136.67C149.892 140.657 154.008 142.65 160.075 142.65C163.975 142.65 168.395 141.307 173.335 138.62C178.362 135.847 182.695 132.25 186.335 127.83C187.375 126.617 188.545 126.01 189.845 126.01ZM157.085 107.16C153.878 107.16 151.148 109.023 148.895 112.75C146.728 116.477 145.645 120.983 145.645 126.27V126.53C150.758 125.317 154.788 123.497 157.735 121.07C160.682 118.643 162.155 115.827 162.155 112.62C162.155 110.973 161.678 109.673 160.725 108.72C159.858 107.68 158.645 107.16 157.085 107.16ZM192.13 155.65C188.837 155.65 186.497 153.917 185.11 150.45C183.81 146.983 183.16 141.437 183.16 133.81C183.16 122.543 184.763 111.84 187.97 101.7C188.75 99.1867 190.007 97.3667 191.74 96.24C193.56 95.0267 196.073 94.42 199.28 94.42C201.013 94.42 202.227 94.6367 202.92 95.07C203.613 95.5033 203.96 96.3267 203.96 97.54C203.96 98.9267 203.31 102.047 202.01 106.9C201.143 110.367 200.45 113.4 199.93 116C199.41 118.6 198.977 121.807 198.63 125.62C201.49 118.167 204.697 112.1 208.25 107.42C211.803 102.74 215.27 99.4033 218.65 97.41C222.117 95.4167 225.28 94.42 228.14 94.42C233.773 94.42 236.59 97.2367 236.59 102.87C236.59 106.25 235.637 112.36 233.73 121.2C232.083 128.74 231.26 133.723 231.26 136.15C231.26 139.617 232.517 141.35 235.03 141.35C236.763 141.35 238.8 140.31 241.14 138.23C243.567 136.063 246.773 132.597 250.76 127.83C251.8 126.617 252.97 126.01 254.27 126.01C255.397 126.01 256.263 126.53 256.87 127.57C257.563 128.61 257.91 130.04 257.91 131.86C257.91 135.327 257.087 138.013 255.44 139.92C251.713 144.513 247.683 148.283 243.35 151.23C239.103 154.177 234.25 155.65 228.79 155.65C224.37 155.65 221.033 154.393 218.78 151.88C216.527 149.28 215.4 145.553 215.4 140.7C215.4 138.273 216.007 133.94 217.22 127.7C218.347 122.24 218.91 118.47 218.91 116.39C218.91 115.003 218.433 114.31 217.48 114.31C216.353 114.31 214.75 115.783 212.67 118.73C210.677 121.59 208.597 125.403 206.43 130.17C204.35 134.937 202.66 139.963 201.36 145.25C200.407 149.323 199.28 152.097 197.98 153.57C196.767 154.957 194.817 155.65 192.13 155.65ZM321.232 126.01C322.359 126.01 323.226 126.53 323.832 127.57C324.526 128.61 324.872 130.04 324.872 131.86C324.872 135.327 324.049 138.013 322.402 139.92C318.849 144.253 314.949 147.98 310.702 151.1C306.456 154.133 302.252 155.65 298.092 155.65C291.506 155.65 286.479 151.793 283.012 144.08C279.372 148.673 276.166 151.75 273.392 153.31C270.706 154.87 267.542 155.65 263.902 155.65C258.616 155.65 254.239 153.7 250.772 149.8C247.392 145.813 245.702 140.657 245.702 134.33C245.702 127.397 247.176 120.983 250.122 115.09C253.069 109.11 257.099 104.257 262.212 100.53C267.412 96.7167 273.219 94.4633 279.632 93.77C281.279 76.9567 284.399 62.6133 288.992 50.74C293.672 38.78 299.782 32.8 307.322 32.8C311.049 32.8 314.126 34.49 316.552 37.87C319.066 41.25 320.322 46.3633 320.322 53.21C320.322 62.9167 317.939 74.27 313.172 87.27C308.406 100.27 302.036 113.617 294.062 127.31C294.409 132.337 295.146 135.933 296.272 138.1C297.486 140.267 299.002 141.35 300.822 141.35C303.162 141.35 305.546 140.31 307.972 138.23C310.399 136.15 313.649 132.683 317.722 127.83C318.762 126.617 319.932 126.01 321.232 126.01ZM305.892 45.54C304.246 45.54 302.599 48.4867 300.952 54.38C299.306 60.1867 297.876 67.8133 296.662 77.26C295.536 86.7067 294.712 96.5867 294.192 106.9C303.899 85.7533 308.752 68.7667 308.752 55.94C308.752 52.6467 308.449 50.09 307.842 48.27C307.322 46.45 306.672 45.54 305.892 45.54ZM268.452 142.52C270.099 142.52 271.746 141.87 273.392 140.57C275.039 139.183 277.119 136.67 279.632 133.03C278.766 128.35 278.332 123.107 278.332 117.3C278.332 115.22 278.419 111.84 278.592 107.16C273.826 108.633 269.839 111.84 266.632 116.78C263.512 121.633 261.952 127.05 261.952 133.03C261.952 139.357 264.119 142.52 268.452 142.52ZM372.277 126.01C373.403 126.01 374.27 126.53 374.877 127.57C375.57 128.61 375.917 130.04 375.917 131.86C375.917 135.327 375.093 138.013 373.447 139.92C370.24 143.82 365.69 147.417 359.797 150.71C353.99 154.003 347.75 155.65 341.077 155.65C331.977 155.65 324.913 153.18 319.887 148.24C314.86 143.3 312.347 136.54 312.347 127.96C312.347 121.98 313.603 116.433 316.117 111.32C318.63 106.12 322.097 102.003 326.517 98.97C331.023 95.9367 336.093 94.42 341.727 94.42C346.753 94.42 350.783 95.9367 353.817 98.97C356.85 101.917 358.367 105.947 358.367 111.06C358.367 117.04 356.2 122.197 351.867 126.53C347.62 130.777 340.383 134.157 330.157 136.67C332.323 140.657 336.44 142.65 342.507 142.65C346.407 142.65 350.827 141.307 355.767 138.62C360.793 135.847 365.127 132.25 368.767 127.83C369.807 126.617 370.977 126.01 372.277 126.01ZM339.517 107.16C336.31 107.16 333.58 109.023 331.327 112.75C329.16 116.477 328.077 120.983 328.077 126.27V126.53C333.19 125.317 337.22 123.497 340.167 121.07C343.113 118.643 344.587 115.827 344.587 112.62C344.587 110.973 344.11 109.673 343.157 108.72C342.29 107.68 341.077 107.16 339.517 107.16ZM428.932 126.01C430.059 126.01 430.926 126.53 431.532 127.57C432.226 128.61 432.572 130.04 432.572 131.86C432.572 135.067 431.749 137.753 430.102 139.92C426.029 145.207 420.959 149.367 414.892 152.4C408.912 155.433 402.152 156.95 394.612 156.95C388.719 156.95 383.606 156.083 379.272 154.35C374.939 152.53 371.602 150.103 369.262 147.07C367.009 143.95 365.882 140.483 365.882 136.67C365.882 130.95 368.179 125.88 372.772 121.46C377.366 117.04 383.952 112.793 392.532 108.72L371.212 109.24C369.306 109.327 367.832 108.677 366.792 107.29C365.839 105.817 365.362 104.083 365.362 102.09C365.362 100.01 365.839 98.19 366.792 96.63C367.832 94.9833 369.219 94.16 370.952 94.16C374.939 94.16 380.269 94.4633 386.942 95.07C388.329 95.1567 390.842 95.33 394.482 95.59C398.209 95.85 401.329 95.98 403.842 95.98C404.709 95.98 406.356 95.6333 408.782 94.94C409.216 94.8533 410.039 94.6367 411.252 94.29C412.552 93.9433 413.636 93.77 414.502 93.77C415.889 93.77 417.016 94.3767 417.882 95.59C418.836 96.8033 419.312 98.6667 419.312 101.18C419.312 103.953 418.662 106.12 417.362 107.68C416.062 109.24 414.026 110.627 411.252 111.84C403.366 115.22 396.822 118.86 391.622 122.76C386.422 126.573 383.822 130.387 383.822 134.2C383.822 136.627 384.949 138.62 387.202 140.18C389.456 141.74 392.792 142.52 397.212 142.52C402.066 142.52 406.962 141.307 411.902 138.88C416.929 136.453 421.436 132.77 425.422 127.83C426.462 126.617 427.632 126.01 428.932 126.01ZM490.111 115.48C490.371 115.393 490.805 115.35 491.411 115.35C492.711 115.35 493.708 115.783 494.401 116.65C495.095 117.517 495.441 118.687 495.441 120.16C495.441 122.847 494.921 124.97 493.881 126.53C492.841 128.003 491.281 129.087 489.201 129.78C485.215 131.08 480.968 131.73 476.461 131.73C472.648 131.73 469.051 131.21 465.671 130.17C463.158 134.243 460.385 138.447 457.351 142.78C453.885 147.72 450.895 151.1 448.381 152.92C445.868 154.74 443.008 155.65 439.801 155.65C436.248 155.65 433.431 154.263 431.351 151.49C429.358 148.717 428.101 144.34 427.581 138.36C426.541 126.227 426.021 115.61 426.021 106.51V101.96C426.108 99.1 426.888 97.1067 428.361 95.98C429.835 94.8533 432.045 94.29 434.991 94.29C437.245 94.29 438.891 94.81 439.931 95.85C441.058 96.8033 441.621 98.45 441.621 100.79C441.621 110.757 442.228 123.713 443.441 139.66C448.641 131.947 452.541 125.793 455.141 121.2C453.841 118.687 453.191 115.697 453.191 112.23C453.191 109.283 453.841 106.423 455.141 103.65C456.441 100.877 458.218 98.6233 460.471 96.89C462.725 95.1567 465.281 94.29 468.141 94.29C470.655 94.29 472.691 95.2 474.251 97.02C475.811 98.7533 476.591 101.31 476.591 104.69C476.591 108.59 475.551 113.053 473.471 118.08C476.765 117.907 481.141 117.257 486.601 116.13L490.111 115.48ZM550.46 115.09C551.587 115.09 552.453 115.653 553.06 116.78C553.667 117.907 553.97 119.337 553.97 121.07C553.97 125.23 552.713 127.7 550.2 128.48C545 130.3 539.28 131.34 533.04 131.6C531.393 138.88 528.143 144.73 523.29 149.15C518.437 153.483 512.933 155.65 506.78 155.65C501.58 155.65 497.117 154.393 493.39 151.88C489.75 149.367 486.977 146.03 485.07 141.87C483.163 137.71 482.21 133.203 482.21 128.35C482.21 121.763 483.467 115.913 485.98 110.8C488.493 105.6 491.96 101.57 496.38 98.71C500.8 95.7633 505.697 94.29 511.07 94.29C517.657 94.29 522.943 96.5867 526.93 101.18C531.003 105.687 533.387 111.277 534.08 117.95C538.153 117.69 543.007 116.823 548.64 115.35C549.333 115.177 549.94 115.09 550.46 115.09ZM507.82 141.87C510.593 141.87 512.977 140.743 514.97 138.49C517.05 136.237 518.437 132.987 519.13 128.74C516.443 126.92 514.363 124.537 512.89 121.59C511.503 118.643 510.81 115.523 510.81 112.23C510.81 110.843 510.94 109.457 511.2 108.07H510.55C507.083 108.07 504.18 109.76 501.84 113.14C499.587 116.433 498.46 121.113 498.46 127.18C498.46 131.947 499.37 135.587 501.19 138.1C503.097 140.613 505.307 141.87 507.82 141.87ZM556.072 155.65C552.172 155.65 548.966 153.873 546.452 150.32C544.026 146.68 542.812 142.173 542.812 136.8C542.812 130.3 543.246 124.363 544.112 118.99C544.979 113.53 546.409 107.767 548.402 101.7C549.269 99.1 550.482 97.2367 552.042 96.11C553.602 94.9833 556.072 94.42 559.452 94.42C561.359 94.42 562.659 94.7233 563.352 95.33C564.132 95.9367 564.522 96.8467 564.522 98.06C564.522 98.7533 564.046 101.093 563.092 105.08C562.226 108.287 561.532 111.19 561.012 113.79C559.279 122.89 558.412 128.957 558.412 131.99C558.412 133.81 558.629 135.11 559.062 135.89C559.496 136.583 560.189 136.93 561.142 136.93C562.442 136.93 564.046 135.63 565.952 133.03C567.946 130.43 570.026 126.487 572.192 121.2C574.446 115.913 576.612 109.413 578.692 101.7C579.386 99.1 580.426 97.2367 581.812 96.11C583.286 94.9833 585.452 94.42 588.312 94.42C590.306 94.42 591.692 94.68 592.472 95.2C593.252 95.6333 593.642 96.5 593.642 97.8C593.642 99.9667 592.559 105.903 590.392 115.61C587.966 126.703 586.752 133.55 586.752 136.15C586.752 137.797 587.099 139.097 587.792 140.05C588.486 140.917 589.396 141.35 590.522 141.35C592.256 141.35 594.292 140.31 596.632 138.23C599.059 136.063 602.266 132.597 606.252 127.83C607.292 126.617 608.462 126.01 609.762 126.01C610.889 126.01 611.756 126.53 612.362 127.57C613.056 128.61 613.402 130.04 613.402 131.86C613.402 135.327 612.579 138.013 610.932 139.92C607.206 144.513 603.176 148.283 598.842 151.23C594.596 154.177 589.742 155.65 584.282 155.65C580.122 155.65 577.046 154.047 575.052 150.84C573.146 147.633 572.192 143.127 572.192 137.32C570.719 143.213 568.509 147.763 565.562 150.97C562.616 154.09 559.452 155.65 556.072 155.65ZM627.041 158.51C622.534 158.51 619.068 157.47 616.641 155.39C614.301 153.31 613.131 150.97 613.131 148.37C613.131 146.117 613.954 144.167 615.601 142.52C617.248 140.873 619.674 140.05 622.881 140.05C624.008 140.05 625.308 140.18 626.781 140.44C628.341 140.613 629.511 140.743 630.291 140.83C630.204 138.577 629.684 136.453 628.731 134.46C627.864 132.467 626.738 130.56 625.351 128.74C623.964 126.833 622.664 125.187 621.451 123.8C618.764 128.913 616.078 133.16 613.391 136.54C610.791 139.92 607.931 143.127 604.811 146.16C603.251 147.72 601.604 148.5 599.871 148.5C598.484 148.5 597.358 148.023 596.491 147.07C595.624 146.03 595.191 144.773 595.191 143.3C595.191 141.567 595.798 139.963 597.011 138.49L598.701 136.41C603.468 130.517 607.064 125.663 609.491 121.85C611.051 119.337 612.611 116.347 614.171 112.88C615.818 109.413 617.941 104.69 620.541 98.71C622.188 94.8967 625.611 92.99 630.811 92.99C633.238 92.99 634.928 93.2067 635.881 93.64C636.834 94.0733 637.311 94.7667 637.311 95.72C637.311 96.24 637.138 97.0633 636.791 98.19C636.444 99.3167 635.968 100.443 635.361 101.57C633.801 104.69 633.021 107.333 633.021 109.5C633.021 110.8 633.454 112.23 634.321 113.79C635.274 115.35 636.704 117.3 638.611 119.64C641.384 123.28 643.464 126.4 644.851 129C646.324 131.513 647.061 134.287 647.061 137.32C647.061 140.96 646.194 144.427 644.461 147.72C642.814 150.927 640.474 153.527 637.441 155.52C634.408 157.513 630.941 158.51 627.041 158.51Z" fill="#DC2626"/>
</g>
<defs>
<clipPath id="clip0_97_2">
<rect width="668" height="211" fill="white"/>
</clipPath>
</defs>
</svg>
